<?xml version="1.0" encoding="UTF-8" standalone="no"?>
<svg
   xmlns:dc="http://purl.org/dc/elements/1.1/"
   xmlns:cc="http://creativecommons.org/ns#"
   xmlns:rdf="http://www.w3.org/1999/02/22-rdf-syntax-ns#"
   xmlns:svg="http://www.w3.org/2000/svg"
   xmlns="http://www.w3.org/2000/svg"
   xmlns:sodipodi="http://sodipodi.sourceforge.net/DTD/sodipodi-0.dtd"
   xmlns:inkscape="http://www.inkscape.org/namespaces/inkscape"
   id="visual"
   viewBox="0 0 900 600"
   width="900"
   height="600"
   version="1.1"
   sodipodi:docname="center-decoration.svg"
   inkscape:version="1.0.2-2 (e86c870879, 2021-01-15)">
  <metadata
     id="metadata861">
    <rdf:RDF>
      <cc:Work
         rdf:about="">
        <dc:format>image/svg+xml</dc:format>
        <dc:type
           rdf:resource="http://purl.org/dc/dcmitype/StillImage" />
        <dc:title></dc:title>
      </cc:Work>
    </rdf:RDF>
  </metadata>
  <defs
     id="defs859" />
  <sodipodi:namedview
     pagecolor="#ffffff"
     bordercolor="#666666"
     borderopacity="1"
     objecttolerance="10"
     gridtolerance="10"
     guidetolerance="10"
     inkscape:pageopacity="0"
     inkscape:pageshadow="2"
     inkscape:window-width="1920"
     inkscape:window-height="1057"
     id="namedview857"
     showgrid="false"
     inkscape:zoom="0.92277435"
     inkscape:cx="468.42053"
     inkscape:cy="317.54436"
     inkscape:window-x="-8"
     inkscape:window-y="-8"
     inkscape:window-maximized="1"
     inkscape:current-layer="g877" />
  <g
     id="g877"
     transform="matrix(1,0,0,-0.9461963,0.76628352,948.52876)"
     style="stroke-width:1.02804">
    <g
       id="g903"
       transform="translate(0,85.976439)">
      <g
         id="g867"
         transform="matrix(1,0,0,-1.0568631,-0.76628352,1222.4775)">
        <path
           d="m 0,431 18.8,1.3 c 18.9,1.4 56.5,4 94,1.2 37.5,-2.8 74.9,-11.2 112.4,-12.3 37.5,-1.2 75.1,4.8 112.6,6.6 37.5,1.9 74.9,-0.5 112.4,-4.8 37.5,-4.3 75.1,-10.7 112.6,-6 37.5,4.7 74.9,20.3 112.4,30.7 37.5,10.3 75.1,15.3 112.6,12.5 37.5,-2.9 74.9,-13.5 93.5,-18.9 L 900,436 v 165 h -18.7 c -18.6,0 -56,0 -93.5,0 -37.5,0 -75.1,0 -112.6,0 -37.5,0 -74.9,0 -112.4,0 -37.5,0 -75.1,0 -112.6,0 -37.5,0 -74.9,0 -112.4,0 -37.5,0 -75.1,0 -112.6,0 -37.5,0 -74.9,0 -112.4,0 -37.5,0 -75.1,0 -94,0 H 0 Z"
           fill="#80ff80"
           id="path848" />
        <path
           d="m 0,497 h 18.8 c 18.9,0 56.5,0 94,1.2 37.5,1.1 74.9,3.5 112.4,5 37.5,1.5 75.1,2.1 112.6,-1.9 37.5,-4 74.9,-12.6 112.4,-18.1 37.5,-5.5 75.1,-7.9 112.6,-1 37.5,6.8 74.9,22.8 112.4,29.3 37.5,6.5 75.1,3.5 112.6,-1.2 37.5,-4.6 74.9,-11 93.5,-14.1 L 900,493 v 108 h -18.7 c -18.6,0 -56,0 -93.5,0 -37.5,0 -75.1,0 -112.6,0 -37.5,0 -74.9,0 -112.4,0 -37.5,0 -75.1,0 -112.6,0 -37.5,0 -74.9,0 -112.4,0 -37.5,0 -75.1,0 -112.6,0 -37.5,0 -74.9,0 -112.4,0 -37.5,0 -75.1,0 -94,0 H 0 Z"
           fill="#6cd86c"
           id="path850" />
        <path
           d="m 0,543 18.8,-1.2 c 18.9,-1.1 56.5,-3.5 94,-5.1 37.5,-1.7 74.9,-2.7 112.4,-1.5 37.5,1.1 75.1,4.5 112.6,-1.5 37.5,-6 74.9,-21.4 112.4,-30.2 37.5,-8.8 75.1,-11.2 112.6,-7.2 37.5,4 74.9,14.4 112.4,20.9 37.5,6.5 75.1,9.1 112.6,5.3 37.5,-3.8 74.9,-14.2 93.5,-19.3 L 900,498 v 103 h -18.7 c -18.6,0 -56,0 -93.5,0 -37.5,0 -75.1,0 -112.6,0 -37.5,0 -74.9,0 -112.4,0 -37.5,0 -75.1,0 -112.6,0 -37.5,0 -74.9,0 -112.4,0 -37.5,0 -75.1,0 -112.6,0 -37.5,0 -74.9,0 -112.4,0 -37.5,0 -75.1,0 -94,0 H 0 Z"
           fill="#58b258"
           id="path852" />
        <path
           d="m 0,558 18.8,0.8 c 18.9,0.9 56.5,2.5 94,-0.3 37.5,-2.8 74.9,-10.2 112.4,-10.3 37.5,-0.2 75.1,6.8 112.6,10.1 37.5,3.4 74.9,3 112.4,4.9 37.5,1.8 75.1,5.8 112.6,0.8 37.5,-5 74.9,-19 112.4,-23.8 37.5,-4.9 75.1,-0.5 112.6,3.3 37.5,3.8 74.9,7.2 93.5,8.8 L 900,554 v 47 h -18.7 c -18.6,0 -56,0 -93.5,0 -37.5,0 -75.1,0 -112.6,0 -37.5,0 -74.9,0 -112.4,0 -37.5,0 -75.1,0 -112.6,0 -37.5,0 -74.9,0 -112.4,0 -37.5,0 -75.1,0 -112.6,0 -37.5,0 -74.9,0 -112.4,0 -37.5,0 -75.1,0 -94,0 H 0 Z"
           fill="#458e45"
           id="path854" />
      </g>
      <path
         d="m 0,431 18.8,1.3 c 18.9,1.4 56.5,4 94,1.2 37.5,-2.8 74.9,-11.2 112.4,-12.3 37.5,-1.2 75.1,4.8 112.6,6.6 37.5,1.9 74.9,-0.5 112.4,-4.8 37.5,-4.3 75.1,-10.7 112.6,-6 37.5,4.7 74.9,20.3 112.4,30.7 37.5,10.3 75.1,15.3 112.6,12.5 37.5,-2.9 74.9,-13.5 93.5,-18.9 L 900,436 v 165 h -18.7 c -18.6,0 -56,0 -93.5,0 -37.5,0 -75.1,0 -112.6,0 -37.5,0 -74.9,0 -112.4,0 -37.5,0 -75.1,0 -112.6,0 -37.5,0 -74.9,0 -112.4,0 -37.5,0 -75.1,0 -112.6,0 -37.5,0 -74.9,0 -112.4,0 -37.5,0 -75.1,0 -94,0 H 0 Z"
         fill="#80ff80"
         id="path869"
         style="stroke-width:1.05686" />
      <path
         d="m 0,497 h 18.8 c 18.9,0 56.5,0 94,1.2 37.5,1.1 74.9,3.5 112.4,5 37.5,1.5 75.1,2.1 112.6,-1.9 37.5,-4 74.9,-12.6 112.4,-18.1 37.5,-5.5 75.1,-7.9 112.6,-1 37.5,6.8 74.9,22.8 112.4,29.3 37.5,6.5 75.1,3.5 112.6,-1.2 37.5,-4.6 74.9,-11 93.5,-14.1 L 900,493 v 108 h -18.7 c -18.6,0 -56,0 -93.5,0 -37.5,0 -75.1,0 -112.6,0 -37.5,0 -74.9,0 -112.4,0 -37.5,0 -75.1,0 -112.6,0 -37.5,0 -74.9,0 -112.4,0 -37.5,0 -75.1,0 -112.6,0 -37.5,0 -74.9,0 -112.4,0 -37.5,0 -75.1,0 -94,0 H 0 Z"
         fill="#6cd86c"
         id="path871"
         style="stroke-width:1.05686" />
      <path
         d="m 0,543 18.8,-1.2 c 18.9,-1.1 56.5,-3.5 94,-5.1 37.5,-1.7 74.9,-2.7 112.4,-1.5 37.5,1.1 75.1,4.5 112.6,-1.5 37.5,-6 74.9,-21.4 112.4,-30.2 37.5,-8.8 75.1,-11.2 112.6,-7.2 37.5,4 74.9,14.4 112.4,20.9 37.5,6.5 75.1,9.1 112.6,5.3 37.5,-3.8 74.9,-14.2 93.5,-19.3 L 900,498 v 103 h -18.7 c -18.6,0 -56,0 -93.5,0 -37.5,0 -75.1,0 -112.6,0 -37.5,0 -74.9,0 -112.4,0 -37.5,0 -75.1,0 -112.6,0 -37.5,0 -74.9,0 -112.4,0 -37.5,0 -75.1,0 -112.6,0 -37.5,0 -74.9,0 -112.4,0 -37.5,0 -75.1,0 -94,0 H 0 Z"
         fill="#58b258"
         id="path873"
         style="stroke-width:1.05686" />
      <path
         d="m 0,563.49639 18.8,1.02017 c 18.9,1.14769 56.5,3.18803 94,-0.38256 37.5,-3.57059 74.9,-13.00715 112.4,-13.13467 37.5,-0.25505 75.1,8.67143 112.6,12.87962 37.5,4.33572 74.9,3.82564 112.4,6.24854 37.5,2.29538 75.1,7.39622 112.6,1.02016 37.5,-6.37605 74.9,-24.229 112.4,-30.35001 37.5,-6.24853 75.1,-0.63761 112.6,4.2082 37.5,4.8458 74.9,9.18151 93.5,11.22185 l 18.7,2.16786 v 59.9349 h -18.7 c -18.6,0 -56,0 -93.5,0 -37.5,0 -75.1,0 -112.6,0 -37.5,0 -74.9,0 -112.4,0 -37.5,0 -75.1,0 -112.6,0 -37.5,0 -74.9,0 -112.4,0 -37.5,0 -75.1,0 -112.6,0 -37.5,0 -74.9,0 -112.4,0 -37.5,0 -75.1,0 -94,0 H 0 Z"
         fill="#458e45"
         id="path875"
         style="stroke-width:1.05686" />
    </g>
  </g>
</svg>
