<svg id="visual" viewBox="0 0 900 600" width="900" height="600" xmlns="http://www.w3.org/2000/svg" xmlns:xlink="http://www.w3.org/1999/xlink" version="1.1"><g><g transform="translate(472 488)"><path d="M85.6 -67C105.1 -43.8 111.1 -8.6 105.3 26.9C99.5 62.4 82 98.2 52.4 114.7C22.8 131.3 -19 128.7 -48.1 110.6C-77.3 92.4 -93.8 58.8 -103.4 22.1C-112.9 -14.6 -115.5 -54.3 -97.1 -77.3C-78.7 -100.2 -39.3 -106.4 -3.1 -103.9C33.1 -101.4 66.1 -90.2 85.6 -67Z" fill="#69d660"></path></g><g transform="translate(296 139)"><path d="M87.6 -61.2C109.2 -42.8 119.3 -6.7 110.7 23C102.1 52.7 75 76 47.3 83.7C19.7 91.4 -8.4 83.6 -34.5 71.2C-60.6 58.8 -84.6 41.8 -93.3 17.4C-102 -7 -95.3 -38.8 -77.2 -56.4C-59 -74 -29.5 -77.3 1.8 -78.7C33 -80.1 66.1 -79.6 87.6 -61.2Z" fill="#69d660"></path></g><g transform="translate(656 37)"><path d="M38.6 -30.7C51.5 -14.5 64.6 1.6 64.9 20.7C65.3 39.9 52.9 62 35 69.5C17 77 -6.6 69.8 -22.9 58C-39.3 46.1 -48.4 29.6 -53.8 10.9C-59.2 -7.9 -60.9 -28.9 -51.4 -44.4C-41.8 -59.8 -20.9 -69.6 -4 -66.4C12.8 -63.2 25.6 -46.9 38.6 -30.7Z" fill="#69d660"></path></g><g transform="translate(898 266)"><path d="M35.8 -27.5C42.9 -19.7 42.7 -5 38.1 6C33.5 17 24.3 24.3 13.1 31.3C1.9 38.3 -11.5 45 -21.3 41.4C-31.1 37.8 -37.3 23.9 -37.3 12C-37.3 0.1 -30.9 -9.8 -23.7 -17.6C-16.4 -25.5 -8.2 -31.4 3.1 -33.9C14.4 -36.4 28.7 -35.4 35.8 -27.5Z" fill="#69d660"></path></g><g transform="translate(85 478)"><path d="M43.8 -34C60 -14.6 78.6 3.8 75.8 17.7C72.9 31.7 48.7 41.2 28.2 46.4C7.7 51.7 -9 52.6 -24.7 46.8C-40.3 41 -54.9 28.4 -62.9 9.7C-70.9 -9.1 -72.4 -34 -60.8 -52.3C-49.3 -70.7 -24.6 -82.5 -5.4 -78.1C13.8 -73.8 27.6 -53.4 43.8 -34Z" fill="#69d660"></path></g><g transform="translate(843 588)"><path d="M78.5 -60.1C93.8 -43.4 92.8 -11.2 87.2 22.6C81.6 56.5 71.5 92.1 47 107.7C22.5 123.4 -16.4 119.2 -43 101.7C-69.5 84.1 -83.7 53.2 -85.3 25.4C-87 -2.5 -76.1 -27.3 -59.8 -44.2C-43.5 -61.1 -21.8 -70.1 4.9 -74C31.6 -77.9 63.2 -76.8 78.5 -60.1Z" fill="#69d660"></path></g></g></svg>